<?xml version="1.0" encoding="UTF-8"?>
<svg version="1.1" xmlns="http://www.w3.org/2000/svg" width="1024" height="1024">
<path d="M0 0 C337.92 0 675.84 0 1024 0 C1024 337.92 1024 675.84 1024 1024 C686.08 1024 348.16 1024 0 1024 C0 686.08 0 348.16 0 0 Z " fill="#FEFEFE" transform="translate(0,0)"/>
<path d="M0 0 C52.02327701 0.67642559 105.16915685 48.12624972 139.796875 82.99560547 C152.02593814 95.62326374 162.8522907 109.49621673 172.1875 124.375 C172.83460938 125.39078125 173.48171875 126.4065625 174.1484375 127.453125 C185.08078323 145.30769838 190.79724785 163.6143108 186.1875 184.375 C185.86105753 185.71003715 185.53027069 187.04406156 185.1875 188.375 C191.47315206 176.39297576 191.03418507 160.80325666 187.375 148 C183.38413218 135.34408136 177.08295554 122.98531313 170.3828125 111.56640625 C166.17966776 104.06174297 167.46782568 96.28322442 169.68115234 88.2644043 C171.88181523 81.02502332 174.65825831 74.49363155 179.1875 68.375 C180.12335938 67.09689453 180.12335938 67.09689453 181.078125 65.79296875 C187.47105444 57.89651702 196.16507285 52.52394852 206.1875 50.375 C224.37747972 49.05415085 239.07680805 53.2089062 254.1875 63.375 C255.48508186 64.53321195 256.76163599 65.71617769 258 66.9375 C259.7942846 68.60451099 260.66362034 69.35632965 263.14672852 69.44482422 C264.22071899 69.28264404 264.22071899 69.28264404 265.31640625 69.1171875 C266.11361084 69.0035083 266.91081543 68.8898291 267.73217773 68.77270508 C268.54243408 68.6414624 269.35269043 68.51021973 270.1875 68.375 C270.92492432 68.26244873 271.66234863 68.14989746 272.42211914 68.03393555 C273.92090629 67.80171044 275.41886226 67.56406821 276.91601562 67.3215332 C295.43732233 64.35352022 313.75983033 63.18852991 332.5 63.125 C333.31355957 63.11973297 334.12711914 63.11446594 334.96533203 63.10903931 C337.28566474 63.09739187 339.60544552 63.10060496 341.92578125 63.109375 C342.62991653 63.10542221 343.33405182 63.10146942 344.05952454 63.09739685 C348.95687724 63.14437724 348.95687724 63.14437724 351.1875 65.375 C350.38868408 65.49504395 349.58986816 65.61508789 348.7668457 65.73876953 C332.2397941 68.25914194 316.09064246 71.06858599 300.1875 76.375 C298.95700928 76.78105469 298.95700928 76.78105469 297.70166016 77.1953125 C273.59430555 85.27356482 254.79057453 96.09615489 242.765625 119.359375 C238.49899596 129.24661869 237.66642341 140.08987839 236.65264893 150.68869019 C234.84962681 169.01071965 231.48413445 186.69952666 221.1875 202.375 C220.34832031 203.68210937 220.34832031 203.68210937 219.4921875 205.015625 C198.75309478 235.38668128 161.68112272 252.09494836 128.5 265 C114.00486033 270.71865509 103.28376837 279.60946988 92.1875 290.375 C91.31867188 291.19355469 90.44984375 292.01210938 89.5546875 292.85546875 C81.55963319 301.36505626 79.06719515 312.89967599 76.1875 323.875 C72.11600759 339.38462266 67.17590537 352.8728456 55.26171875 364.20703125 C53.1875 365.375 53.1875 365.375 50.4375 365.0625 C49.32375 364.7221875 49.32375 364.7221875 48.1875 364.375 C47.42250282 355.00074884 47.84029345 347.0143298 51.203125 338.16796875 C51.51522415 337.31331528 51.8273233 336.4586618 52.14888 335.57810974 C52.81299445 333.76327601 53.48298176 331.95058185 54.15847778 330.13995361 C55.17643437 327.40473303 56.17339614 324.66277954 57.16381836 321.91748047 C101.97493893 197.88475162 101.97493893 197.88475162 134.1875 182.375 C133.24132812 182.106875 132.29515625 181.83875 131.3203125 181.5625 C109.96778465 175.31998225 91.21025149 166.04525095 75.1875 150.375 C74.60484375 149.87871094 74.0221875 149.38242187 73.421875 148.87109375 C72.1875 147.375 72.1875 147.375 72.1875 143.375 C74.42366536 143.57828776 76.65983073 143.78157552 78.89599609 143.98486328 C79.85844238 144.0723584 80.82088867 144.15985352 81.8125 144.25 C87.00455729 144.72200521 92.19661458 145.19401042 97.38867188 145.66601562 C98.43087891 145.76076172 99.47308594 145.85550781 100.546875 145.953125 C104.4140625 146.3046875 108.28125 146.65625 112.1484375 147.0078125 C112.93009277 147.07887207 113.71174805 147.14993164 114.51708984 147.22314453 C115.34394287 147.29831299 115.34394287 147.29831299 116.1875 147.375 C115.27097656 147.21386719 114.35445313 147.05273438 113.41015625 146.88671875 C103.16783161 144.91684337 93.28762568 141.97643229 83.39157104 138.72427368 C81.93629869 138.24606066 80.47970902 137.77183572 79.02175903 137.30184937 C63.53626679 132.28905193 49.8597664 124.97662463 40.1875 111.375 C38.875 108 38.875 108 38.1875 105.375 C42.32727007 104.23247091 45.00502901 104.59576738 49.10546875 105.78125 C50.26602783 106.10996094 51.42658691 106.43867188 52.62231445 106.77734375 C53.86070068 107.13957031 55.09908691 107.50179687 56.375 107.875 C57.66004328 108.24213768 58.94544918 108.60800832 60.23120117 108.97265625 C62.21537187 109.53558615 64.19926184 110.09935626 66.18202209 110.66723633 C73.1005988 112.6478322 80.04763576 114.51649058 87 116.375 C89.17318884 116.95828954 91.34636708 117.54161856 93.51953125 118.125 C95.07548374 118.54180516 96.63145765 118.95853042 98.1875 119.375 C97.63852051 119.15062256 97.08954102 118.92624512 96.52392578 118.69506836 C89.05885807 115.63480219 81.61784527 112.51854656 74.1875 109.375 C73.4902179 109.08034851 72.79293579 108.78569702 72.07452393 108.4821167 C67.57918802 106.57970733 63.0926417 104.65810815 58.61395264 102.71682739 C57.13867716 102.07977205 55.66137446 101.44738789 54.1819458 100.82003784 C36.91907502 93.48842157 25.09850846 84.83887112 16.5703125 67.83984375 C15.15739492 64.29956721 14.56318252 61.15590737 14.1875 57.375 C18.74755152 55.97452677 21.35838504 56.87939537 25.7109375 58.65625 C26.32999969 58.90542175 26.94906189 59.15459351 27.58688354 59.41131592 C29.58427939 60.21968068 31.5732793 61.04674626 33.5625 61.875 C34.9251519 62.43140873 36.28810823 62.98707249 37.65136719 63.54199219 C45.80303841 66.87890356 53.86366134 70.3702908 61.765625 74.265625 C64.0465745 75.51381758 64.0465745 75.51381758 66.1875 75.375 C65.70732422 75.09003662 65.22714844 74.80507324 64.73242188 74.51147461 C51.29197154 66.52211943 37.9727098 58.35130618 24.75830078 49.99316406 C22.59693692 48.63271585 20.42556802 47.29202972 18.24609375 45.9609375 C4.87827429 37.56213228 -1.59346686 24.90463354 -5.3515625 9.76171875 C-5.90320684 6.90532308 -6.11750427 4.27254061 -5.8125 1.375 C-4.15087461 -0.28662539 -2.2973373 0.08353954 0 0 Z " fill="#2E58F9" transform="translate(105.8125,322.625)"/>
<path d="M0 0 C12.85737125 11.10997683 22.57093183 27.11037523 24.5625 44.1875 C26.1161783 66.72773446 24.99644633 90.1445897 10.04296875 108.4140625 C7.94868793 110.75569932 5.8247884 113.00900006 3.5625 115.1875 C4.87973754 118.11813519 6.28398646 120.13465944 8.6015625 122.3515625 C9.47167969 123.19847656 9.47167969 123.19847656 10.359375 124.0625 C10.96265625 124.64 11.5659375 125.2175 12.1875 125.8125 C13.39251989 126.96667517 14.59328487 128.12531463 15.7890625 129.2890625 C16.32096191 129.79775879 16.85286133 130.30645508 17.40087891 130.83056641 C18.5625 132.1875 18.5625 132.1875 18.5625 134.1875 C16.34140472 135.3927222 14.1127135 136.57637404 11.875 137.75 C11.24916016 138.09224609 10.62332031 138.43449219 9.97851562 138.78710938 C7.28658973 140.18240081 5.050701 141.16963899 2 141.28125 C-1.66012604 139.63888575 -4.02753092 137.01948414 -6.75 134.125 C-7.29978516 133.55716797 -7.84957031 132.98933594 -8.41601562 132.40429688 C-9.76577365 131.00759075 -11.10291525 129.59871163 -12.4375 128.1875 C-13.99597656 128.69410156 -13.99597656 128.69410156 -15.5859375 129.2109375 C-40.56354544 137.25050182 -62.37734548 137.5681181 -86.46484375 125.6953125 C-103.75553099 116.39350135 -114.39217937 100.35436026 -120.1875 81.9375 C-125.82235489 62.93624513 -123.24962894 40.7167484 -114.4375 23.1875 C-112.28261633 19.38238926 -109.95770844 15.7601657 -107.4375 12.1875 C-107.00050781 11.56359375 -106.56351562 10.9396875 -106.11328125 10.296875 C-80.93205345 -22.06818656 -31.13402335 -23.43472855 0 0 Z " fill="#1154F4" transform="translate(501.4375,452.8125)"/>
<path d="M0 0 C16.22230943 -0.48803578 31.16330273 3.87507664 43.68359375 14.46484375 C53.3764515 23.83990289 59.18733958 36.81411762 59.42553711 50.28051758 C59.48437272 67.14494284 56.3832322 81.72054169 44.62109375 94.52734375 C32.67792344 105.65620699 17.10738928 109.88028214 1.0859375 109.5 C-15.47026026 108.02502342 -28.95975997 102.01241333 -39.81640625 89.15234375 C-49.63413368 75.93536015 -52.09178978 60.22148116 -50.81640625 44.15234375 C-48.4790118 31.43691792 -41.70296551 19.22866549 -31.3828125 11.27734375 C-21.82068978 4.83783005 -11.53527673 0.62396088 0 0 Z " fill="#6D31FE" transform="translate(751.81640625,478.84765625)"/>
<path d="M0 0 C30.03 0 60.06 0 91 0 C91 7.26 91 14.52 91 22 C68.89 22 46.78 22 24 22 C24 35.2 24 48.4 24 62 C45.12 62 66.24 62 88 62 C88 69.59 88 77.18 88 85 C66.88 85 45.76 85 24 85 C24 97.21 24 109.42 24 122 C46.44 122 68.88 122 92 122 C92 129.59 92 137.18 92 145 C61.64 145 31.28 145 0 145 C0 97.15 0 49.3 0 0 Z " fill="#463BFD" transform="translate(595,440)"/>
<path d="M0 0 C11.29034383 8.78137854 18.91721577 19.60075134 21 34 C21.16700836 37.3967163 21.1851037 40.78714762 21.1875 44.1875 C21.19974609 45.08275391 21.21199219 45.97800781 21.22460938 46.90039062 C21.24319959 55.48287156 19.99731813 63.37573854 16.625 71.3125 C16.02558594 72.76076172 16.02558594 72.76076172 15.4140625 74.23828125 C13.91411185 77.16774288 12.13571703 79.50530075 10 82 C1.44847456 78.46742854 -4.59458158 68.19563739 -10 61 C-13.90285767 62.58667578 -16.33520982 65.13350481 -19.25 68.125 C-20.14203125 69.03507813 -21.0340625 69.94515625 -21.953125 70.8828125 C-22.62859375 71.58148437 -23.3040625 72.28015625 -24 73 C-20.45543178 78.72044179 -16.08348577 83.31336807 -11.42578125 88.140625 C-10.85730469 88.73875 -10.28882813 89.336875 -9.703125 89.953125 C-9.18395508 90.49098633 -8.66478516 91.02884766 -8.12988281 91.58300781 C-7 93 -7 93 -7 95 C-21.69143971 100.03706504 -36.81368017 99.00129114 -50.953125 92.6796875 C-62.13117884 86.4048904 -70.15293214 76.80368851 -73.83666992 64.50488281 C-77.98643742 49.05005711 -77.61514372 32.64550819 -70.25 18.25 C-62.73797883 5.46670725 -52.23325865 -1.87634562 -38 -6 C-25.74204097 -8.90014804 -10.54726188 -7.23420546 0 0 Z " fill="#FDFDFE" transform="translate(480,467)"/>
<path d="M0 0 C0.7432251 0.00491455 1.4864502 0.0098291 2.25219727 0.01489258 C13.9758803 0.26148067 25.80445808 3.42083983 34.625 11.5 C39.24650546 16.49385424 42.8125 22.44503707 42.8125 29.3125 C40.02214954 30.31630916 37.23035145 31.3156945 34.4375 32.3125 C33.6434375 32.59867187 32.849375 32.88484375 32.03125 33.1796875 C31.27070312 33.45039062 30.51015625 33.72109375 29.7265625 34 C29.0248291 34.25136719 28.3230957 34.50273438 27.60009766 34.76171875 C25.8125 35.3125 25.8125 35.3125 23.8125 35.3125 C22.88263573 33.76075199 22.01873362 32.16924208 21.1875 30.5625 C17.53037438 24.20970439 13.5031381 22.5427127 6.8125 20.3125 C-0.23444722 19.60234253 -5.08590523 20.79861933 -11.125 24.5 C-12.94233995 27.60016815 -12.36106387 30.78336794 -12.1875 34.3125 C-4.90441286 39.0970098 3.16536711 40.87705294 11.50195312 43.13671875 C23.26076167 46.45110499 36.03156541 50.64750477 42.6875 61.5625 C46.29266416 69.34452101 46.13687663 78.91880972 44.11328125 87.16015625 C43.19890101 89.40945448 42.16153262 91.29748925 40.8125 93.3125 C40.44640625 93.9209375 40.0803125 94.529375 39.703125 95.15625 C34.5418672 102.42024246 24.27735004 106.75991936 15.8125 108.75 C0.2820042 111.03763441 -14.82443071 108.76239503 -28.1875 100.3125 C-34.05015393 95.7643855 -38.1308514 90.5107701 -40.1875 83.3125 C-40.1875 81.9925 -40.1875 80.6725 -40.1875 79.3125 C-33.2575 77.0025 -26.3275 74.6925 -19.1875 72.3125 C-18.341875 73.88 -17.49625 75.4475 -16.625 77.0625 C-13.65202139 82.0151326 -11.4652807 84.05059399 -6.1875 86.3125 C-5.259375 86.725 -4.33125 87.1375 -3.375 87.5625 C4.00676647 89.29938623 12.04315891 89.05953846 18.8125 85.3125 C20.0176797 81.6969609 20.77050426 78.03727776 19.8125 74.3125 C16.2410229 70.68711381 12.35436398 69.2335789 7.5625 67.875 C6.52391846 67.56260376 6.52391846 67.56260376 5.46435547 67.24389648 C1.76922697 66.1395051 -1.94190343 65.10281805 -5.6640625 64.09375 C-18.47777321 60.5775083 -28.6892098 56.43676096 -35.81640625 44.609375 C-37.44214568 40.70018959 -37.72430981 37.23272553 -37.6875 33.0625 C-37.68177979 32.31178223 -37.67605957 31.56106445 -37.67016602 30.78759766 C-37.40333958 22.45578502 -34.55017669 16.66832433 -29 10.5 C-21.05520978 3.16102167 -10.66789158 -0.08409511 0 0 Z " fill="#8C2CFE" transform="translate(862.1875,478.6875)"/>
<path d="M0 0 C6.12069255 4.84841376 10.3385833 11.78726608 11.7109375 19.52734375 C12.47563157 31.47412158 12.34686167 42.17576908 4.4609375 51.90234375 C-1.4082124 58.06242134 -7.56222656 61.60348993 -16.14086914 61.82006836 C-27.16751065 61.91599339 -34.29941335 60.1535027 -42.56640625 52.4453125 C-49.88648242 44.29529572 -50.76839233 33.71860261 -50.6015625 23.21875 C-49.89191928 14.83608944 -46.1288396 7.5550677 -40.2890625 1.52734375 C-28.49036968 -7.91641649 -12.59474654 -8.10276356 0 0 Z " fill="#FDFDFE" transform="translate(775.2890625,505.47265625)"/>
<path d="M0 0 C7.26 0 14.52 0 22 0 C22 33.33 22 66.66 22 101 C14.74 101 7.48 101 0 101 C0 67.67 0 34.34 0 0 Z " fill="#2645FA" transform="translate(547,484)"/>
<path d="M0 0 C-0.26719849 0.95724976 -0.26719849 0.95724976 -0.53979492 1.93383789 C-1.97397302 7.1252372 -3.33985959 12.32530121 -4.61328125 17.55859375 C-4.89236328 18.68716797 -5.17144531 19.81574219 -5.45898438 20.97851562 C-6.02641917 23.27811981 -6.58377805 25.5802345 -7.13085938 27.88476562 C-10.22409549 40.23657178 -15.57719022 53.76749099 -26.1875 61.625 C-29 63 -29 63 -31.06640625 62.82421875 C-33 62 -33 62 -34.046875 60.35546875 C-37.57453587 49.4785144 -36.76825361 39.38044591 -32 29 C-26.99509865 20.25726093 -11.29178382 0 0 0 Z " fill="#4A3FFD" transform="translate(221,600)"/>
<path d="M0 0 C3.7954383 2.18035817 6.35694949 4.93326413 8 9 C8.70031352 13.93476739 8.51450496 17.91162413 6.375 22.4375 C2.73335668 26.36664148 -0.67002467 28.12217703 -6 28.4375 C-10.26543541 28.25027669 -12.74624072 26.81006484 -16 24 C-19.31087662 20.16635339 -20.68435866 17.17280898 -20.37890625 12.01953125 C-19.57263677 7.72219803 -17.73405117 4.56334147 -14.4921875 1.640625 C-9.80774168 -1.54044054 -5.34121658 -1.6897667 0 0 Z " fill="#184FF5" transform="translate(563,438)"/>
<path d="M0 0 C30.77204447 0.40010933 70.71831927 21.5583589 92.45288086 42.56445312 C93.02530518 43.16193359 93.59772949 43.75941406 94.1875 44.375 C92.5375 44.705 90.8875 45.035 89.1875 45.375 C88.754375 44.570625 88.32125 43.76625 87.875 42.9375 C86.38275998 40.09653646 86.38275998 40.09653646 83.1875 39.375 C83.1875 38.715 83.1875 38.055 83.1875 37.375 C82.424375 37.271875 81.66125 37.16875 80.875 37.0625 C77.92171485 36.30700845 77.22882166 35.50507477 75.1875 33.375 C73.08417109 32.66052357 73.08417109 32.66052357 71.1875 32.375 C71.1875 31.715 71.1875 31.055 71.1875 30.375 C70.67960937 30.13265625 70.17171875 29.8903125 69.6484375 29.640625 C65.24874898 27.49845456 61.26430011 25.09286674 57.1875 22.375 C55.54130887 21.65926473 53.88021945 20.9724304 52.1875 20.375 C52.1875 19.715 52.1875 19.055 52.1875 18.375 C49.5475 17.715 46.9075 17.055 44.1875 16.375 C44.1875 15.715 44.1875 15.055 44.1875 14.375 C43.65382812 14.25898438 43.12015625 14.14296875 42.5703125 14.0234375 C39.63655696 13.22507124 36.88785446 12.1233337 34.0625 11 C24.40007173 6.96274108 24.40007173 6.96274108 14.1875 5.375 C14.1875 4.715 14.1875 4.055 14.1875 3.375 C13.1975 3.705 12.2075 4.035 11.1875 4.375 C6.59628704 3.9418667 2.51293305 2.95747551 -1.8125 1.375 C-3.88030687 9.83420993 -1.05402138 17.95233758 3.1875 25.375 C3.744375 26.261875 4.30125 27.14875 4.875 28.0625 C6.1875 30.375 6.1875 30.375 6.1875 33.375 C6.8475 33.375 7.5075 33.375 8.1875 33.375 C8.72375 34.2825 9.26 35.19 9.8125 36.125 C12.31596522 40.15729894 15.91690751 41.61286232 20.1875 43.375 C20.1875 44.035 20.1875 44.695 20.1875 45.375 C20.950625 45.49875 21.71375 45.6225 22.5 45.75 C25.1875 46.375 25.1875 46.375 28.1875 48.375 C28.8475 48.375 29.5075 48.375 30.1875 48.375 C30.5175 49.365 30.8475 50.355 31.1875 51.375 C33.69197516 52.59369929 33.69197516 52.59369929 36.1875 53.375 C36.1875 54.035 36.1875 54.695 36.1875 55.375 C38.4975 55.705 40.8075 56.035 43.1875 56.375 C43.1875 57.035 43.1875 57.695 43.1875 58.375 C44.1775 58.705 45.1675 59.035 46.1875 59.375 C47.52840759 60.02629797 48.86342331 60.69013275 50.1875 61.375 C50.1875 62.035 50.1875 62.695 50.1875 63.375 C51.8375 64.035 53.4875 64.695 55.1875 65.375 C55.1875 66.035 55.1875 66.695 55.1875 67.375 C56.5075 67.375 57.8275 67.375 59.1875 67.375 C60.1875 68.375 61.1875 69.375 62.1875 70.375 C64.79361077 71.09697162 64.79361077 71.09697162 67.1875 71.375 C67.1875 72.035 67.1875 72.695 67.1875 73.375 C68.1775 73.375 69.1675 73.375 70.1875 73.375 C70.1875 74.035 70.1875 74.695 70.1875 75.375 C64.06037113 74.98958383 59.94760762 72.05092565 54.9375 68.8125 C53.07352219 67.63055494 51.20890786 66.44961326 49.34375 65.26953125 C48.35375 64.63998535 47.36375 64.01043945 46.34375 63.36181641 C43.02952818 61.27555889 39.69157239 59.23085269 36.34375 57.19921875 C35.18390283 56.49359799 34.02407205 55.78795029 32.86425781 55.08227539 C30.63171485 53.72437799 28.39633697 52.37156491 26.15917969 51.02124023 C9.57677015 40.89484336 0.12232287 30.13086462 -5.125 11 C-5.75723494 7.66639761 -6.05979894 4.75475215 -5.8125 1.375 C-4.15087461 -0.28662539 -2.2973373 0.08353954 0 0 Z " fill="#0870E9" transform="translate(105.8125,322.625)"/>
<path d="M0 0 C4.89084724 0.43778319 8.95355999 1.57831856 13.46484375 3.4765625 C15.27239136 4.23054321 15.27239136 4.23054321 17.11645508 4.99975586 C18.39030847 5.54109992 19.66398715 6.08285528 20.9375 6.625 C22.24547288 7.17572006 23.55366087 7.72592948 24.86206055 8.27563477 C27.42503039 9.35458744 29.98558613 10.4389693 32.54394531 11.52880859 C35.4191626 12.7527461 38.29829725 13.96649007 41.1796875 15.17578125 C47.80667134 17.98430672 54.05556036 20.91319775 60 25 C58.125 25.58203125 58.125 25.58203125 56 26 C54 24.6875 54 24.6875 52 23 C49.20754441 21.17046013 48.11407456 20.9913906 44.6875 21.25 C40.72907262 20.98163204 40.41045469 20.8019949 37.75 18.25 C33.06508959 13.75674502 26.51960986 11 20 11 C19.34 10.34 18.68 9.68 18 9 C16.35008418 8.29289322 14.68437744 7.62056011 13 7 C13 6.34 13 5.68 13 5 C11.9275 5.020625 10.855 5.04125 9.75 5.0625 C6.85209576 5.0142016 4.71387859 4.86844115 2 4 C3.24976756 7.65316671 3.67098753 8.78065836 7 11 C6.67 11.33 6.34 11.66 6 12 C5.95936168 13.66617115 5.957279 15.33388095 6 17 C6.66 17.33 7.32 17.66 8 18 C11.86869871 21.39976553 11.86869871 21.39976553 12.4375 24 C13.31052235 27.10407947 15.41405103 28.23398607 18 30 C18.66 30 19.32 30 20 30 C20 30.66 20 31.32 20 32 C22.31 32.66 24.62 33.32 27 34 C27 34.99 27 35.98 27 37 C28.051875 36.896875 29.10375 36.79375 30.1875 36.6875 C34 37 34 37 36.9375 39.5 C37.618125 40.325 38.29875 41.15 39 42 C35.47345695 43.17551435 34.43704463 42.53734455 31.21484375 40.95507812 C30.60769531 40.63990234 30.00054687 40.32472656 29.375 40 C28.74980469 39.67966797 28.12460938 39.35933594 27.48046875 39.02929688 C13.88140189 31.86525237 5.74864694 22.18949768 0 8 C-0.76171875 4.125 -0.76171875 4.125 -1 1 C-0.67 0.67 -0.34 0.34 0 0 Z " fill="#0A69F0" transform="translate(121,379)"/>
<path d="M0 0 C21.12 0 42.24 0 64 0 C64 7.26 64 14.52 64 22 C43.21 22 22.42 22 1 22 C0.67 21.34 0.34 20.68 0 20 C20.46 20 40.92 20 62 20 C62 13.73 62 7.46 62 1 C41.54 1 21.08 1 0 1 C0 0.67 0 0.34 0 0 Z " fill="#2B1BFD" transform="translate(619,503)"/>
<path d="M0 0 C1.90625 0.4140625 1.90625 0.4140625 4.40625 1.9765625 C6.51631839 5.40542364 6.53116523 7.45626601 5.90625 11.4140625 C3.46026113 14.79528241 2.01328441 16.18343033 -2.09375 17.0390625 C-6.1680856 16.19024258 -7.63780875 14.73680654 -10.09375 11.4140625 C-10.80335213 7.62951782 -10.37176176 5.94691837 -8.59375 2.5390625 C-5.55206021 -0.04637382 -3.89367767 -0.27604431 0 0 Z " fill="#FAFBFE" transform="translate(332.09375,396.5859375)"/>
<path d="M0 0 C1.89492188 0.01353516 1.89492188 0.01353516 3.828125 0.02734375 C4.79234375 0.03894531 5.7565625 0.05054688 6.75 0.0625 C6.42 1.0525 6.09 2.0425 5.75 3.0625 C4.08333333 3.0625 2.41666667 3.0625 0.75 3.0625 C0.75 2.4025 0.75 1.7425 0.75 1.0625 C-0.054375 1.35125 -0.85875 1.64 -1.6875 1.9375 C-5.83131067 3.24607179 -9.99978663 4.17467765 -14.25 5.0625 C-14.25 5.7225 -14.25 6.3825 -14.25 7.0625 C-15.57 7.0625 -16.89 7.0625 -18.25 7.0625 C-20.6320551 9.21215948 -22.73584822 11.48902301 -24.875 13.875 C-26.25 15.0625 -26.25 15.0625 -29.25 15.0625 C-29.25 15.7225 -29.25 16.3825 -29.25 17.0625 C-29.91 17.0625 -30.57 17.0625 -31.25 17.0625 C-31.37375 18.031875 -31.4975 19.00125 -31.625 20 C-31.83125 21.010625 -32.0375 22.02125 -32.25 23.0625 C-32.91 23.3925 -33.57 23.7225 -34.25 24.0625 C-36.66844745 27.58940254 -37.97187807 31.00258327 -39.25 35.0625 C-39.95144979 37.02330946 -40.66030073 38.98148095 -41.375 40.9375 C-41.72820312 41.90429688 -42.08140625 42.87109375 -42.4453125 43.8671875 C-42.71085937 44.59164062 -42.97640625 45.31609375 -43.25 46.0625 C-43.58 46.0625 -43.91 46.0625 -44.25 46.0625 C-44.18432258 31.81050058 -37.1068467 20.33959664 -27.5703125 10.29296875 C-19.93870515 3.08128238 -10.28948797 -0.09527304 0 0 Z " fill="#0A60F2" transform="translate(319.25,372.9375)"/>
<path d="M0 0 C0.82060913 -0.00499512 1.64121826 -0.00999023 2.48669434 -0.01513672 C4.84546837 -0.02690881 7.20372023 -0.02393838 9.5625 -0.015625 C10.28262268 -0.0195929 11.00274536 -0.02356079 11.74468994 -0.02764893 C16.7695175 0.0195175 16.7695175 0.0195175 19 2.25 C15.71010715 2.76214451 12.41787138 3.25740064 9.125 3.75 C8.2071875 3.89308594 7.289375 4.03617187 6.34375 4.18359375 C-9.48807746 6.52492035 -9.48807746 6.52492035 -13.97314453 4.24853516 C-16.46386053 3.02147801 -18.21833071 3.02095525 -20.984375 3.0546875 C-22.38623047 3.06435547 -22.38623047 3.06435547 -23.81640625 3.07421875 C-25.26853516 3.09935547 -25.26853516 3.09935547 -26.75 3.125 C-27.73355469 3.13402344 -28.71710938 3.14304687 -29.73046875 3.15234375 C-32.15389407 3.17587215 -34.57682222 3.20874632 -37 3.25 C-37 2.92 -37 2.59 -37 2.25 C-24.69806351 0.23564783 -12.43504421 0.0269329 0 0 Z " fill="#2D45FB" transform="translate(438,385.75)"/>
<path d="M0 0 C6.6 0.6 6.6 0.6 9 3 C8.01 3 7.02 3 6 3 C6.165 3.928125 6.33 4.85625 6.5 5.8125 C7 9 7 9 7 12 C7.804375 12.12375 8.60875 12.2475 9.4375 12.375 C10.283125 12.58125 11.12875 12.7875 12 13 C12.33 13.66 12.66 14.32 13 15 C13.66 15 14.32 15 15 15 C15.3403125 16.175625 15.3403125 16.175625 15.6875 17.375 C16.76670768 20.21535469 16.76670768 20.21535469 19.5625 21.1875 C20.366875 21.455625 21.17125 21.72375 22 22 C22.33 22.66 22.66 23.32 23 24 C23.66 24 24.32 24 25 24 C25 24.66 25 25.32 25 26 C25.99 25.67 26.98 25.34 28 25 C28.66 25.33 29.32 25.66 30 26 C30 26.66 30 27.32 30 28 C30.66 28.33 31.32 28.66 32 29 C20.79770748 28.41040566 11.73315593 18.84056868 4.33203125 11.30078125 C1.49281163 8.12851534 0.07390019 5.10034619 -1 1 C-0.67 0.67 -0.34 0.34 0 0 Z " fill="#0E63F3" transform="translate(145,427)"/>
<path d="M0 0 C1.65 0 3.3 0 5 0 C2.10757877 2.31418912 -0.7484814 3.94812683 -4.11328125 5.48828125 C-5.10666504 5.94404541 -6.10004883 6.39980957 -7.12353516 6.86938477 C-8.17589355 7.34561279 -9.22825195 7.82184082 -10.3125 8.3125 C-11.39321777 8.80741943 -12.47393555 9.30233887 -13.58740234 9.81225586 C-19.37393352 12.44096467 -25.16101838 14.87087845 -31.125 17.0625 C-37.32816562 19.43594599 -42.31015076 22.70824102 -47.52392578 26.75024414 C-51.73022531 30 -51.73022531 30 -55 30 C-53.6875 28 -53.6875 28 -52 26 C-51.01 26 -50.02 26 -49 26 C-48.77183594 25.39285156 -48.54367188 24.78570313 -48.30859375 24.16015625 C-46.61983159 21.37243842 -45.01590271 20.75156905 -42.0625 19.4375 C-38.43307043 17.83888128 -38.43307043 17.83888128 -35.390625 15.37890625 C-33.11100203 13.11849359 -30.10400909 13.42088259 -27 13 C-23.74419066 11.55993048 -20.96173149 9.97448766 -18 8 C-15.3125 7.875 -15.3125 7.875 -13 8 C-13 7.34 -13 6.68 -13 6 C-11.2097939 5.32942113 -9.41778511 4.6636531 -7.625 4 C-6.62726563 3.62875 -5.62953125 3.2575 -4.6015625 2.875 C-2 2 -2 2 0 2 C0 1.34 0 0.68 0 0 Z " fill="#3C22FD" transform="translate(262,572)"/>
<path d="M0 0 C0.33 0 0.66 0 1 0 C3.8522565 12.732473 1.88990978 25.91444367 -5 37 C-7.3125 39.625 -7.3125 39.625 -9 41 C-6.66666667 34 -4.33333333 27 -2 20 C-1.91978001 18.59175107 -1.89234023 17.18002769 -1.90234375 15.76953125 C-1.90556641 14.96708984 -1.90878906 14.16464844 -1.91210938 13.33789062 C-1.92048828 12.50451172 -1.92886719 11.67113281 -1.9375 10.8125 C-1.94426758 9.5450293 -1.94426758 9.5450293 -1.95117188 8.25195312 C-1.96294597 6.16793845 -1.9808811 4.08396023 -2 2 C-1.34 2 -0.68 2 0 2 C0 1.34 0 0.68 0 0 Z " fill="#3D3EFC" transform="translate(292,480)"/>
<path d="M0 0 C5.94 0.66 11.88 1.32 18 2 C18 2.33 18 2.66 18 3 C14.7 3.33 11.4 3.66 8 4 C7.67 5.32 7.34 6.64 7 8 C9.33214148 9.20628008 11.49642139 10.1654738 14 11 C13.67 11.99 13.34 12.98 13 14 C13.556875 14.04125 14.11375 14.0825 14.6875 14.125 C18.24030274 15.46930374 19.70958953 18.00974189 22 21 C13.92178357 18.16831204 5.02553408 10.98915335 0 4 C0 2.68 0 1.36 0 0 Z " fill="#0D51F4" transform="translate(178,466)"/>
<path d="M0 0 C0.99 0 1.98 0 3 0 C6.16602934 12.45650887 5.55143945 27.80299439 -1 39 C-1.99 39.495 -1.99 39.495 -3 40 C-2.69255859 38.93072266 -2.69255859 38.93072266 -2.37890625 37.83984375 C0.97076135 25.93169529 2.26822155 15.03302262 -0.66015625 2.8984375 C-0.77230469 2.27195312 -0.88445312 1.64546875 -1 1 C-0.67 0.67 -0.34 0.34 0 0 Z " fill="#EDEBFC" transform="translate(292,474)"/>
<path d="M0 0 C0.33 0 0.66 0 1 0 C1.05451714 2.04136395 1.09302485 4.08315856 1.125 6.125 C1.14820313 7.26195312 1.17140625 8.39890625 1.1953125 9.5703125 C0.9952061 13.08418083 0.1818491 15.70514796 -1 19 C-1.26211438 20.61719629 -1.47667526 22.24342789 -1.625 23.875 C-1.69976562 24.65617187 -1.77453125 25.43734375 -1.8515625 26.2421875 C-1.90054687 26.82226562 -1.94953125 27.40234375 -2 28 C-2.66 28 -3.32 28 -4 28 C-4.474375 28.804375 -4.94875 29.60875 -5.4375 30.4375 C-7 33 -7 33 -10 34 C-8.96001832 31.36376737 -7.89092495 28.7529671 -6.74609375 26.16015625 C-3.68388253 18.91139953 -2.40462897 12.67165506 -2.23828125 4.80078125 C-2 2 -2 2 0 0 Z " fill="#4735FC" transform="translate(298,484)"/>
<path d="M0 0 C4.92084405 0.59415764 9.1342227 2.11404994 13.625 4.125 C14.66527344 4.58434937 14.66527344 4.58434937 15.7265625 5.05297852 C22.09419482 7.92587513 28.06939488 11.30460401 34 15 C32.125 15.58203125 32.125 15.58203125 30 16 C28 14.6875 28 14.6875 26 13 C23.20754441 11.17046013 22.11407456 10.9913906 18.6875 11.25 C14.10680228 10.93944422 12.9510364 9.52679309 9.7734375 6.45703125 C7.86541196 4.88942436 6.50757312 4.37167532 4.125 3.8125 C3.09375 3.544375 2.0625 3.27625 1 3 C0.67 2.01 0.34 1.02 0 0 Z " fill="#0C60F2" transform="translate(147,389)"/>
<path d="M0 0 C3.6120531 0.60610415 5.63539144 2.05959832 8.4375 4.375 C9.30375 5.08914063 10.17 5.80328125 11.0625 6.5390625 C12.031875 7.35117187 13.00125 8.16328125 14 9 C15.14560496 9.94558925 16.29144743 10.89089081 17.4375 11.8359375 C18.60481423 12.80651337 19.77148814 13.7778599 20.9375 14.75 C21.49300537 15.20938965 22.04851074 15.6687793 22.62084961 16.14208984 C25.47690838 18.54714592 27.91625026 20.89252652 30 24 C28 23 26 22 24 21 C24 20.34 24 19.68 24 19 C23.401875 18.855625 22.80375 18.71125 22.1875 18.5625 C20.43849596 18.1127561 18.71322977 17.57107659 17 17 C16.525625 16.195625 16.05125 15.39125 15.5625 14.5625 C13.90447019 11.84333111 12.91563061 11.10592885 10 10 C10.33 9.67 10.66 9.34 11 9 C10.113125 8.62875 9.22625 8.2575 8.3125 7.875 C4.41600116 5.66943462 2.67369422 3.53871294 0 0 Z " fill="#0D5DF4" transform="translate(200,368)"/>
<path d="M0 0 C4.96591186 0.52153412 8.69884073 2.17467165 12.9375 4.6875 C13.54996582 5.04328125 14.16243164 5.3990625 14.79345703 5.765625 C19.31936495 8.4529957 23.19748647 11.37855854 27 15 C26.67 15.66 26.34 16.32 26 17 C25.01 16.01 24.02 15.02 23 14 C22.01 14.33 21.02 14.66 20 15 C19.67 13.68 19.34 12.36 19 11 C16.525 10.505 16.525 10.505 14 10 C14 9.34 14 8.68 14 8 C13.30132812 7.89042969 12.60265625 7.78085937 11.8828125 7.66796875 C10.97273438 7.50941406 10.06265625 7.35085938 9.125 7.1875 C8.22007812 7.03667969 7.31515625 6.88585937 6.3828125 6.73046875 C4 6 4 6 2 3 C1.34 2.67 0.68 2.34 0 2 C0 1.34 0 0.68 0 0 Z " fill="#0E47F7" transform="translate(340,377)"/>
<path d="M0 0 C3.99953897 0.56817963 6.59865634 1.77596362 9.94140625 4.01953125 C10.85470703 4.62990234 11.76800781 5.24027344 12.70898438 5.86914062 C13.65064453 6.51044922 14.59230469 7.15175781 15.5625 7.8125 C16.50802734 8.44220703 17.45355469 9.07191406 18.42773438 9.72070312 C22.6574088 12.56938138 26.47277004 15.29238017 30 19 C28.35 19.33 26.7 19.66 25 20 C24.566875 19.195625 24.13375 18.39125 23.6875 17.5625 C22.19525998 14.72153646 22.19525998 14.72153646 19 14 C19 13.34 19 12.68 19 12 C18.236875 11.896875 17.47375 11.79375 16.6875 11.6875 C13.73421485 10.93200845 13.04132166 10.13007477 11 8 C8.89667109 7.28552357 8.89667109 7.28552357 7 7 C7 6.34 7 5.68 7 5 C3.535 3.02 3.535 3.02 0 1 C0 0.67 0 0.34 0 0 Z " fill="#0A66EF" transform="translate(170,348)"/>
<path d="M0 0 C0.33 0 0.66 0 1 0 C0.57874861 11.79503905 -4.58857778 25.71339867 -12 35 C-12.66 35 -13.32 35 -14 35 C-13.67 33.35 -13.34 31.7 -13 30 C-12.34 30 -11.68 30 -11 30 C-10.71125 29.071875 -10.4225 28.14375 -10.125 27.1875 C-9 24 -9 24 -7 21 C-6.31974363 19.00458132 -5.65509503 17.00382009 -5 15 C-4.505 13.88625 -4.01 12.7725 -3.5 11.625 C-1.89706378 7.75123747 -0.9304531 4.07967898 0 0 Z " fill="#451FFE" transform="translate(338,491)"/>
<path d="M0 0 C0 0.99 0 1.98 0 3 C-0.75023437 3.74636719 -1.50046875 4.49273438 -2.2734375 5.26171875 C-5.26425952 8.26539531 -6.78737112 11.00718175 -8.625 14.8125 C-9.0727478 15.73409912 -9.0727478 15.73409912 -9.52954102 16.67431641 C-11.6218126 21.03824642 -13.44309901 25.42087944 -15 30 C-16.23163687 26.3050894 -15.59151962 25.30221924 -14.1875 21.75 C-12.92206948 18.48924901 -11.78209416 15.34570851 -11 11.9375 C-10 9 -10 9 -7.9375 7.8125 C-7.298125 7.544375 -6.65875 7.27625 -6 7 C-5.40929986 5.05396726 -5.40929986 5.05396726 -5 3 C-2.53571429 0 -2.53571429 0 0 0 Z " fill="#3631FD" transform="translate(198,610)"/>
<path d="M0 0 C2.97 0.495 2.97 0.495 6 1 C6 1.66 6 2.32 6 3 C8.31 3 10.62 3 13 3 C13 3.66 13 4.32 13 5 C14.65 5.33 16.3 5.66 18 6 C18 6.66 18 7.32 18 8 C18.60328125 8.18175781 19.2065625 8.36351562 19.828125 8.55078125 C27.76625659 11.04745167 27.76625659 11.04745167 31 14 C24.66053684 12.96449622 19.08630371 10.14583578 13.25 7.5625 C12.08855469 7.05912109 10.92710937 6.55574219 9.73046875 6.03710938 C8.62832031 5.55177734 7.52617187 5.06644531 6.390625 4.56640625 C5.38032227 4.12240479 4.37001953 3.67840332 3.32910156 3.22094727 C1 2 1 2 0 0 Z " fill="#1056F6" transform="translate(161,422)"/>
<path d="M0 0 C2.64 0.66 5.28 1.32 8 2 C8 2.66 8 3.32 8 4 C10.475 4.99 10.475 4.99 13 6 C13 6.66 13 7.32 13 8 C14.32 8 15.64 8 17 8 C18 9 19 10 20 11 C22.60611077 11.72197162 22.60611077 11.72197162 25 12 C25 12.66 25 13.32 25 14 C25.99 14 26.98 14 28 14 C28 14.66 28 15.32 28 16 C23.44211661 15.47843036 20.44535314 14.35728869 16.6015625 11.875 C15.62832031 11.25109375 14.65507812 10.6271875 13.65234375 9.984375 C12.65332031 9.32953125 11.65429688 8.6746875 10.625 8 C9.60277344 7.34515625 8.58054688 6.6903125 7.52734375 6.015625 C2.09232629 2.50354429 2.09232629 2.50354429 0 1 C0 0.67 0 0.34 0 0 Z " fill="#0C62F3" transform="translate(148,382)"/>
<path d="M0 0 C2 2 2 2 2.01171875 5.1953125 C1.90472656 6.49210937 1.79773438 7.78890625 1.6875 9.125 C1.60737671 10.13735718 1.60737671 10.13735718 1.52563477 11.17016602 C1.14628315 15.79981546 0.65683327 20.40216708 0 25 C-0.99 25 -1.98 25 -3 25 C-2.69482108 21.02023584 -2.37963664 17.04132772 -2.0625 13.0625 C-1.97548828 11.92619141 -1.88847656 10.78988281 -1.79882812 9.61914062 C-1.71181641 8.53955078 -1.62480469 7.45996094 -1.53515625 6.34765625 C-1.456604 5.34742432 -1.37805176 4.34719238 -1.29711914 3.31665039 C-1 1 -1 1 0 0 Z " fill="#4431FD" transform="translate(341,461)"/>
<path d="M0 0 C1.32 0.66 2.64 1.32 4 2 C1 4 1 4 -2.4375 5.5625 C-8.50323343 8.52167089 -13.70203002 12.86758342 -19 17 C-19.66 16.67 -20.32 16.34 -21 16 C-19.6875 14 -19.6875 14 -18 12 C-17.01 12 -16.02 12 -15 12 C-14.77183594 11.39285156 -14.54367188 10.78570313 -14.30859375 10.16015625 C-12.61983159 7.37243842 -11.01590271 6.75156905 -8.0625 5.4375 C-4.78791508 3.96658925 -2.3827889 2.71307647 0 0 Z " fill="#432DFD" transform="translate(228,586)"/>
<path d="M0 0 C2.97 0 5.94 0 9 0 C9 0.66 9 1.32 9 2 C9.556875 1.773125 10.11375 1.54625 10.6875 1.3125 C13.96049601 0.87020324 15.41983352 2.06487514 18 4 C18 4.66 18 5.32 18 6 C18.66 6.33 19.32 6.66 20 7 C13.4016516 6.40015015 7.11110263 4.55432523 1 2 C0.67 1.34 0.34 0.68 0 0 Z " fill="#1457F6" transform="translate(178,456)"/>
<path d="M0 0 C0.33 0 0.66 0 1 0 C0.67466864 6.07285211 -0.593522 11.52778176 -2.375 17.3125 C-2.58406982 18.00601563 -2.79313965 18.69953125 -3.00854492 19.4140625 C-4.18449171 23.11104898 -5.42704896 26.07345628 -8 29 C-7.55434408 26.40034044 -7.04981346 24.11519362 -6 21.6875 C-4.91614068 18.77462808 -4.59857389 16.28027212 -4.375 13.1875 C-4.30023438 12.21167969 -4.22546875 11.23585938 -4.1484375 10.23046875 C-4.09945312 9.49441406 -4.05046875 8.75835938 -4 8 C-3.01 7.67 -2.02 7.34 -1 7 C-0.67 4.69 -0.34 2.38 0 0 Z " fill="#2D2DFC" transform="translate(181,641)"/>
<path d="M0 0 C3.75063565 0.5866753 6.559276 1.64940008 9.86328125 3.50390625 C10.74951172 3.99697266 11.63574219 4.49003906 12.54882812 4.99804688 C13.46083984 5.51431641 14.37285156 6.03058594 15.3125 6.5625 C16.24384766 7.08263672 17.17519531 7.60277344 18.13476562 8.13867188 C20.42663795 9.41976974 22.71481613 10.70702105 25 12 C23.02 12.99 23.02 12.99 21 14 C20.649375 13.566875 20.29875 13.13375 19.9375 12.6875 C17.21514365 10.31641544 14.35241784 9.3283165 11 8 C11 7.34 11 6.68 11 6 C8.36 5.34 5.72 4.68 3 4 C3 3.34 3 2.68 3 2 C2.01 2 1.02 2 0 2 C0 1.34 0 0.68 0 0 Z " fill="#0B6CED" transform="translate(147,335)"/>
<path d="M0 0 C5.93163157 0.98860526 11.78362785 2.45917962 17.625 3.875 C17.625 4.205 17.625 4.535 17.625 4.875 C9.61029415 4.33221733 1.61196098 3.73994739 -6.375 2.875 C-3.796875 -0.140625 -3.796875 -0.140625 0 0 Z " fill="#E2EAFE" transform="translate(206.375,466.125)"/>
<path d="M0 0 C3.95906817 1.43308135 7.28718181 3.33141949 10.8125 5.625 C11.78832031 6.25664062 12.76414063 6.88828125 13.76953125 7.5390625 C14.50558594 8.02117187 15.24164063 8.50328125 16 9 C11.72199024 10.42600325 9.13234078 8.45637064 5.3125 6.5625 C4.61060547 6.22412109 3.90871094 5.88574219 3.18554688 5.53710938 C1.45276294 4.70018652 -0.27419752 3.85122607 -2 3 C-1.34 2.01 -0.68 1.02 0 0 Z " fill="#E7F3FD" transform="translate(157,389)"/>
<path d="M0 0 C1.60595948 3.21191895 0.01078224 5.80868826 -1.03125 9.11328125 C-2.59606662 13.77618238 -4.27501994 18.39421568 -6 23 C-6.33 23 -6.66 23 -7 23 C-6.8209611 15.64312867 -5.45862455 5.45862455 0 0 Z " fill="#0C58F4" transform="translate(282,396)"/>
<path d="M0 0 C7.19315625 1.16239217 14.06974434 2.74503612 21 5 C15.14509532 6.57052164 10.68383234 6.16526946 5 4 C5 3.34 5 2.68 5 2 C3.35 1.67 1.7 1.34 0 1 C0 0.67 0 0.34 0 0 Z " fill="#0A54F4" transform="translate(163,432)"/>
<path d="M0 0 C0.33 0 0.66 0 1 0 C0.36800971 7.58388347 -2.09593669 13.93937431 -8 19 C-7.54554036 17.58208592 -7.08625056 16.16571954 -6.625 14.75 C-6.24214844 13.56664062 -6.24214844 13.56664062 -5.8515625 12.359375 C-5.04826333 10.13372042 -4.10288338 8.09068328 -3 6 C-2.34 6 -1.68 6 -1 6 C-0.67 4.02 -0.34 2.04 0 0 Z " fill="#3E2FFD" transform="translate(291,502)"/>
<path d="M0 0 C2.0625 0.4375 2.0625 0.4375 4 1 C1.75335738 2.31855095 -0.49697306 3.62993972 -2.75 4.9375 C-3.70132812 5.49727539 -3.70132812 5.49727539 -4.671875 6.06835938 C-7.76291632 7.85536764 -10.51467668 9.24885273 -14 10 C-10.16428484 4.60602555 -7.29050133 2.99199209 -1 1 C-0.67 0.67 -0.34 0.34 0 0 Z " fill="#4324FE" transform="translate(281,562)"/>
<path d="M0 0 C4.56454251 0.54339792 7.9728176 1.79463821 12 4 C12 4.99 12 5.98 12 7 C10.081875 6.8453125 10.081875 6.8453125 8.125 6.6875 C7.04605469 6.60048828 7.04605469 6.60048828 5.9453125 6.51171875 C4 6 4 6 2 3 C1.34 2.67 0.68 2.34 0 2 C0 1.34 0 0.68 0 0 Z " fill="#1360F5" transform="translate(340,377)"/>
<path d="M0 0 C0.66 0.33 1.32 0.66 2 1 C0.68 4.96 -0.64 8.92 -2 13 C-2.99 13 -3.98 13 -5 13 C-4.68950274 11.56206608 -4.3765224 10.1246682 -4.0625 8.6875 C-3.88847656 7.88699219 -3.71445313 7.08648438 -3.53515625 6.26171875 C-3 4 -3 4 -2 1 C-1.34 0.67 -0.68 0.34 0 0 Z " fill="#EEEDFD" transform="translate(188,628)"/>
<path d="M0 0 C3.45826342 -0.05789006 6.91640293 -0.09355821 10.375 -0.125 C11.35984375 -0.14175781 12.3446875 -0.15851563 13.359375 -0.17578125 C14.77089844 -0.18544922 14.77089844 -0.18544922 16.2109375 -0.1953125 C17.51490479 -0.21102295 17.51490479 -0.21102295 18.84521484 -0.22705078 C21 0 21 0 23 2 C21.37585622 2.19477739 19.75063577 2.38059458 18.125 2.5625 C17.22007812 2.66691406 16.31515625 2.77132813 15.3828125 2.87890625 C13 3 13 3 11 2 C9.12943209 1.7724985 7.25314042 1.59037189 5.375 1.4375 C4.37210937 1.35371094 3.36921875 1.26992188 2.3359375 1.18359375 C1.56507813 1.12300781 0.79421875 1.06242187 0 1 C0 0.67 0 0.34 0 0 Z " fill="#1B2AFA" transform="translate(434,386)"/>
<path d="M0 0 C1.85684088 3.21142152 2.41266805 5.9441131 2.75 9.625 C2.84796875 10.58664062 2.9459375 11.54828125 3.046875 12.5390625 C3 15 3 15 1 17 C0 16 0 16 -0.09765625 12.40234375 C-0.0909822 10.91403133 -0.07902183 9.42573568 -0.0625 7.9375 C-0.05798828 7.17888672 -0.05347656 6.42027344 -0.04882812 5.63867188 C-0.0370068 3.75908129 -0.01907078 1.87953101 0 0 Z " fill="#1F4AF7" transform="translate(523,488)"/>
<path d="M0 0 C0.99 0.33 1.98 0.66 3 1 C-0.63 4.63 -4.26 8.26 -8 12 C-8.99 11.34 -9.98 10.68 -11 10 C-10.401875 9.7525 -9.80375 9.505 -9.1875 9.25 C-6.71222841 7.83555909 -5.66569196 6.27139812 -4 4 C-3.34 4 -2.68 4 -2 4 C-2 3.34 -2 2.68 -2 2 C-1.34 2 -0.68 2 0 2 C0 1.34 0 0.68 0 0 Z " fill="#471FFE" transform="translate(316,535)"/>
<path d="M0 0 C0.33 0 0.66 0 1 0 C1.0810206 2.10353495 1.13919907 4.20795952 1.1875 6.3125 C1.22230469 7.48425781 1.25710938 8.65601563 1.29296875 9.86328125 C1 13 1 13 -0.51171875 14.91796875 C-1.00285156 15.27503906 -1.49398438 15.63210938 -2 16 C-2.05384521 13.70858714 -2.09272087 11.41681812 -2.125 9.125 C-2.14820313 7.84882813 -2.17140625 6.57265625 -2.1953125 5.2578125 C-2 2 -2 2 0 0 Z " fill="#4B49FD" transform="translate(298,484)"/>
<path d="M0 0 C1.60433809 0.47859241 3.20846416 0.95789558 4.8125 1.4375 C6.15248047 1.83775391 6.15248047 1.83775391 7.51953125 2.24609375 C9.35473055 2.80387873 11.18033726 3.39344575 13 4 C13 4.99 13 5.98 13 7 C13.66 7.33 14.32 7.66 15 8 C10.96522658 7.41841104 8.14758799 6.13243941 4.6875 4 C3.80449219 3.46375 2.92148438 2.9275 2.01171875 2.375 C1.34785156 1.92125 0.68398437 1.4675 0 1 C0 0.67 0 0.34 0 0 Z " fill="#194EF8" transform="translate(200,487)"/>
<path d="M0 0 C0.66 0.33 1.32 0.66 2 1 C-0.64875428 4.7278764 -2.55370235 6.74591605 -7 8 C-7.99 8 -8.98 8 -10 8 C-8.71064081 6.85157077 -7.41843421 5.70633773 -6.125 4.5625 C-5.04605469 3.60537109 -5.04605469 3.60537109 -3.9453125 2.62890625 C-2 1 -2 1 0 0 Z " fill="#0647F2" transform="translate(412,449)"/>
<path d="M0 0 C4.50884026 2.31883213 6.93906776 5.06451569 10 9 C9.01 9.495 9.01 9.495 8 10 C6.62437146 8.71034824 5.29233607 7.37310707 4 6 C4 5.34 4 4.68 4 4 C2.68 3.67 1.36 3.34 0 3 C0 2.01 0 1.02 0 0 Z " fill="#225DF8" transform="translate(232,394)"/>
<path d="M0 0 C0.33 0.66 0.66 1.32 1 2 C0.38125 2.0825 -0.2375 2.165 -0.875 2.25 C-3.16352629 2.79948083 -3.16352629 2.79948083 -4.125 4.9375 C-4.41375 5.618125 -4.7025 6.29875 -5 7 C-6.95216435 8.95216435 -8.53199953 9.84826645 -11 11 C-9.63310446 7.84930578 -8.14342115 5.99108226 -5.5 3.8125 C-4.8915625 3.30332031 -4.283125 2.79414063 -3.65625 2.26953125 C-2 1 -2 1 0 0 Z " fill="#7216FE" transform="translate(841,484)"/>
<path d="M0 0 C3.38419999 0.25068148 4.3123671 1.30542561 6.8125 3.75 C9 7 9 7 8.8125 9.875 C8.544375 10.57625 8.27625 11.2775 8 12 C7.34 11.67 6.68 11.34 6 11 C5.71125 9.906875 5.4225 8.81375 5.125 7.6875 C3.97542749 3.91945678 2.96786781 2.47322318 0 0 Z " fill="#1250F6" transform="translate(332,396)"/>
<path d="M0 0 C3.66172475 0.62678171 6.8818995 1.64451846 10.3125 3.0625 C11.19550781 3.42472656 12.07851562 3.78695313 12.98828125 4.16015625 C13.65214844 4.43730469 14.31601563 4.71445312 15 5 C11.06322574 6.31225809 9.2205738 5.3393954 5.3125 4.0625 C4.13300781 3.68222656 2.95351562 3.30195313 1.73828125 2.91015625 C0.83464844 2.60980469 -0.06898438 2.30945313 -1 2 C-0.67 1.34 -0.34 0.68 0 0 Z " fill="#D6E2FB" transform="translate(191,437)"/>
<path d="M0 0 C1.5778125 0.2475 1.5778125 0.2475 3.1875 0.5 C6.20468796 0.89569678 8.97093972 1.09178971 12 1 C8.83759418 3.10827055 7.49342531 3.33817465 3.8125 3.625 C2.46091797 3.73714844 2.46091797 3.73714844 1.08203125 3.8515625 C0.05142578 3.92503906 0.05142578 3.92503906 -1 4 C-1.33 3.34 -1.66 2.68 -2 2 C-1.34 2 -0.68 2 0 2 C0 1.34 0 0.68 0 0 Z " fill="#2336FB" transform="translate(424,389)"/>
<path d="M0 0 C1.98 0 3.96 0 6 0 C3.66666667 2.33333333 1.33333333 4.66666667 -1 7 C-1.99 6.67 -2.98 6.34 -4 6 C-3.525625 5.38125 -3.05125 4.7625 -2.5625 4.125 C-0.97582559 2.09294454 -0.97582559 2.09294454 0 0 Z " fill="#096FF2" transform="translate(294,381)"/>
<path d="M0 0 C1.15957207 3.47871621 0.77456651 4.34219645 -0.4375 7.6875 C-0.86869141 8.89986328 -0.86869141 8.89986328 -1.30859375 10.13671875 C-1.53675781 10.75160156 -1.76492187 11.36648438 -2 12 C-4.0234375 8.3203125 -4.0234375 8.3203125 -3.8125 5.4375 C-2.95027053 2.85081159 -2.07804617 1.71664683 0 0 Z " fill="#3A5BFC" transform="translate(159,660)"/>
<path d="M0 0 C-0.99 3.3 -1.98 6.6 -3 10 C-3.33 8.68 -3.66 7.36 -4 6 C-5.05270463 4.84188612 -5.05270463 4.84188612 -7 4 C-2.25 0 -2.25 0 0 0 Z " fill="#2A1BFC" transform="translate(221,600)"/>
<path d="M0 0 C5.01113235 1.4317521 6.94469549 3.98445693 10 8 C7 8 7 8 4.4375 5.6875 C2 3 2 3 0 0 Z " fill="#1E4DF4" transform="translate(499,453)"/>
<path d="M0 0 C6.75 0.75 6.75 0.75 9 3 C6.36 2.67 3.72 2.34 1 2 C1.33 3.32 1.66 4.64 2 6 C1.01 5.01 0.02 4.02 -1 3 C-0.67 2.01 -0.34 1.02 0 0 Z " fill="#0C54F1" transform="translate(145,427)"/>
<path d="M0 0 C1.45903258 0.30921884 2.91720722 0.62248799 4.375 0.9375 C5.18710938 1.11152344 5.99921875 1.28554688 6.8359375 1.46484375 C9 2 9 2 11 3 C8.69 3.66 6.38 4.32 4 5 C2.68 3.35 1.36 1.7 0 0 Z " fill="#1274F5" transform="translate(158,395)"/>
<path d="M0 0 C3.63 0 7.26 0 11 0 C10.67 0.99 10.34 1.98 10 3 C8.33333333 3 6.66666667 3 5 3 C5 2.34 5 1.68 5 1 C3.68 1.33 2.36 1.66 1 2 C0.67 1.34 0.34 0.68 0 0 Z " fill="#0252F1" transform="translate(315,373)"/>
<path d="M0 0 C1.0326802 2.78823655 1.04509293 3.8677274 0.0625 6.75 C-0.288125 7.4925 -0.63875 8.235 -1 9 C-1.66 8.67 -2.32 8.34 -3 8 C-2.45276317 4.62537285 -1.9451 2.91765 0 0 Z " fill="#8472FD" transform="translate(288,514)"/>
<path d="M0 0 C0.33 0.99 0.66 1.98 1 3 C-4.75 7 -4.75 7 -7 7 C-6.67 6.01 -6.34 5.02 -6 4 C-4.35 3.67 -2.7 3.34 -1 3 C-0.67 2.01 -0.34 1.02 0 0 Z " fill="#4724FD" transform="translate(292,555)"/>
<path d="M0 0 C0 2 0 4 0 6 C-0.66 6 -1.32 6 -2 6 C-2.66 7.32 -3.32 8.64 -4 10 C-3.71872579 8.51882199 -3.42466268 7.04006751 -3.125 5.5625 C-2.96257812 4.73878906 -2.80015625 3.91507812 -2.6328125 3.06640625 C-2.42398437 2.38449219 -2.21515625 1.70257813 -2 1 C-1.34 0.67 -0.68 0.34 0 0 Z " fill="#382DFE" transform="translate(297,499)"/>
<path d="M0 0 C3.37462715 0.54723683 5.08235 1.0549 8 3 C8 3.66 8 4.32 8 5 C6.35 4.67 4.7 4.34 3 4 C3 3.34 3 2.68 3 2 C2.01 2 1.02 2 0 2 C0 1.34 0 0.68 0 0 Z " fill="#1375EC" transform="translate(147,335)"/>
<path d="M0 0 C0.66 0.33 1.32 0.66 2 1 C2 2.65 2 4.3 2 6 C0.68 6.33 -0.64 6.66 -2 7 C-2 5.02 -2 3.04 -2 1 C-1.34 0.67 -0.68 0.34 0 0 Z " fill="#054DF0" transform="translate(382,497)"/>
<path d="M0 0 C0.99 0.33 1.98 0.66 3 1 C1.02 3.31 -0.96 5.62 -3 8 C-3 4.42424104 -1.91159393 2.94704065 0 0 Z " fill="#1C30FD" transform="translate(362,417)"/>
</svg>
